<svg width="120" height="153" viewBox="0 0 120 153" fill="none" xmlns="http://www.w3.org/2000/svg">
<path d="M54.1486 13.9395C53.9904 15.293 53.4895 16.3389 52.6457 17.0771C51.8078 17.8096 50.6916 18.1758 49.2971 18.1758C47.7854 18.1758 46.5725 17.6338 45.6584 16.5498C44.7502 15.4658 44.2961 14.0156 44.2961 12.1992V10.9688C44.2961 9.7793 44.507 8.7334 44.9289 7.83105C45.3566 6.92871 45.9602 6.2373 46.7395 5.75684C47.5187 5.27051 48.4211 5.02734 49.4465 5.02734C50.8059 5.02734 51.8957 5.4082 52.716 6.16992C53.5363 6.92578 54.0139 7.97461 54.1486 9.31641H52.4523C52.3059 8.29688 51.9865 7.55859 51.4943 7.10156C51.008 6.64453 50.3254 6.41602 49.4465 6.41602C48.3684 6.41602 47.5217 6.81445 46.9064 7.61133C46.2971 8.4082 45.9924 9.54199 45.9924 11.0127V12.252C45.9924 13.6406 46.2824 14.7451 46.8625 15.5654C47.4426 16.3857 48.2541 16.7959 49.2971 16.7959C50.2346 16.7959 50.9523 16.585 51.4504 16.1631C51.9543 15.7354 52.2883 14.9941 52.4523 13.9395H54.1486ZM60.4307 12.2959C58.9834 11.8799 57.9287 11.3701 57.2666 10.7666C56.6104 10.1572 56.2822 9.40723 56.2822 8.5166C56.2822 7.50879 56.6836 6.67676 57.4863 6.02051C58.2949 5.3584 59.3438 5.02734 60.6328 5.02734C61.5117 5.02734 62.2939 5.19727 62.9795 5.53711C63.6709 5.87695 64.2041 6.3457 64.5791 6.94336C64.96 7.54102 65.1504 8.19434 65.1504 8.90332H63.4541C63.4541 8.12988 63.208 7.52344 62.7158 7.08398C62.2236 6.63867 61.5293 6.41602 60.6328 6.41602C59.8008 6.41602 59.1504 6.60059 58.6816 6.96973C58.2188 7.33301 57.9873 7.83984 57.9873 8.49023C57.9873 9.01172 58.207 9.4541 58.6465 9.81738C59.0918 10.1748 59.8447 10.5029 60.9053 10.8018C61.9717 11.1006 62.8037 11.4316 63.4014 11.7949C64.0049 12.1523 64.4502 12.5713 64.7373 13.0518C65.0303 13.5322 65.1768 14.0977 65.1768 14.748C65.1768 15.7852 64.7725 16.6172 63.9639 17.2441C63.1553 17.8652 62.0742 18.1758 60.7207 18.1758C59.8418 18.1758 59.0215 18.0088 58.2598 17.6748C57.498 17.335 56.9092 16.8721 56.4932 16.2861C56.083 15.7002 55.8779 15.0352 55.8779 14.291H57.5742C57.5742 15.0645 57.8584 15.6768 58.4268 16.1279C59.001 16.5732 59.7656 16.7959 60.7207 16.7959C61.6113 16.7959 62.2939 16.6143 62.7686 16.251C63.2432 15.8877 63.4805 15.3926 63.4805 14.7656C63.4805 14.1387 63.2607 13.6553 62.8213 13.3154C62.3818 12.9697 61.585 12.6299 60.4307 12.2959ZM71.3182 12.2959C69.8709 11.8799 68.8162 11.3701 68.1541 10.7666C67.4978 10.1572 67.1697 9.40723 67.1697 8.5166C67.1697 7.50879 67.5711 6.67676 68.3738 6.02051C69.1824 5.3584 70.2312 5.02734 71.5203 5.02734C72.3992 5.02734 73.1814 5.19727 73.867 5.53711C74.5584 5.87695 75.0916 6.3457 75.4666 6.94336C75.8475 7.54102 76.0379 8.19434 76.0379 8.90332H74.3416C74.3416 8.12988 74.0955 7.52344 73.6033 7.08398C73.1111 6.63867 72.4168 6.41602 71.5203 6.41602C70.6883 6.41602 70.0379 6.60059 69.5691 6.96973C69.1062 7.33301 68.8748 7.83984 68.8748 8.49023C68.8748 9.01172 69.0945 9.4541 69.534 9.81738C69.9793 10.1748 70.7322 10.5029 71.7928 10.8018C72.8592 11.1006 73.6912 11.4316 74.2889 11.7949C74.8924 12.1523 75.3377 12.5713 75.6248 13.0518C75.9178 13.5322 76.0643 14.0977 76.0643 14.748C76.0643 15.7852 75.66 16.6172 74.8514 17.2441C74.0428 17.8652 72.9617 18.1758 71.6082 18.1758C70.7293 18.1758 69.909 18.0088 69.1473 17.6748C68.3855 17.335 67.7967 16.8721 67.3807 16.2861C66.9705 15.7002 66.7654 15.0352 66.7654 14.291H68.4617C68.4617 15.0645 68.7459 15.6768 69.3143 16.1279C69.8885 16.5732 70.6531 16.7959 71.6082 16.7959C72.4988 16.7959 73.1814 16.6143 73.6561 16.251C74.1307 15.8877 74.368 15.3926 74.368 14.7656C74.368 14.1387 74.1482 13.6553 73.7088 13.3154C73.2693 12.9697 72.4725 12.6299 71.3182 12.2959Z" fill="#1A1B22"/>
<path fill-rule="evenodd" clip-rule="evenodd" d="M16 47H104L96.3966 134.532L60 144L23.9287 134.532L16 47Z" fill="#D1D2D6"/>
<path fill-rule="evenodd" clip-rule="evenodd" d="M34.4834 65.1581H85.6064V74.8581H45.0714L46.0403 86.919H84.7707L82.6975 119.504L60.0592 125.405L39.0776 119.469L37.572 105.249L47.2963 104.236L48.1118 111.938L60.1651 115.349L73.3839 111.903L74.3563 96.619H37.0107L34.4834 65.1581Z" fill="#F5F6F7"/>
</svg>
