<svg width="120" height="153" viewBox="0 0 120 153" fill="none" xmlns="http://www.w3.org/2000/svg">
<path d="M46.6658 18H44.9695V12.085H38.5184V18H36.8309V5.20312H38.5184V10.7051H44.9695V5.20312H46.6658V18ZM58.441 6.5918H54.3277V18H52.649V6.5918H48.5445V5.20312H58.441V6.5918ZM62.7191 5.20312L66.9027 15.6445L71.0863 5.20312H73.2748V18H71.5873V13.0166L71.7455 7.6377L67.5443 18H66.2523L62.06 7.66406L62.227 13.0166V18H60.5395V5.20312H62.7191ZM78.1506 16.6201H84.215V18H76.4543V5.20312H78.1506V16.6201Z" fill="#1A1B22"/>
<path fill-rule="evenodd" clip-rule="evenodd" d="M16 47H104L96.3966 134.532L60 144L23.9287 134.532L16 47Z" fill="#D1D2D6"/>
<path fill-rule="evenodd" clip-rule="evenodd" d="M38.5533 65.145H86.7026L84.4377 92.1263L82.6949 119.52L60.0575 125.421L39.0771 119.484L37.5703 105.253L47.2943 104.234L48.1086 111.925L60.1631 115.336L73.3829 111.89L74.3535 96.6346H53.2773V86.9058H75.0641L76.0741 74.8737H38.5533V65.145Z" fill="#F5F6F7"/>
</svg>
