<svg width="120" height="153" viewBox="0 0 120 153" fill="none" xmlns="http://www.w3.org/2000/svg">
<path d="M21.3477 5.20312H23.0439V14.2646C23.0439 15.4893 22.6748 16.4473 21.9365 17.1387C21.2041 17.8301 20.2256 18.1758 19.001 18.1758C17.7295 18.1758 16.7393 17.8506 16.0303 17.2002C15.3213 16.5498 14.9668 15.6387 14.9668 14.4668H16.6543C16.6543 15.1992 16.8535 15.7705 17.252 16.1807C17.6562 16.5908 18.2393 16.7959 19.001 16.7959C19.6982 16.7959 20.2607 16.5762 20.6885 16.1367C21.1221 15.6973 21.3418 15.082 21.3477 14.291V5.20312ZM31.7342 18C31.6404 17.8125 31.5643 17.4785 31.5057 16.998C30.7498 17.7832 29.8475 18.1758 28.7986 18.1758C27.8611 18.1758 27.0906 17.9121 26.4871 17.3848C25.8895 16.8516 25.5906 16.1777 25.5906 15.3633C25.5906 14.373 25.9656 13.6055 26.7156 13.0605C27.4715 12.5098 28.532 12.2344 29.8973 12.2344H31.4793V11.4873C31.4793 10.9189 31.3094 10.4678 30.9695 10.1338C30.6297 9.79395 30.1287 9.62402 29.4666 9.62402C28.8865 9.62402 28.4002 9.77051 28.0076 10.0635C27.615 10.3564 27.4188 10.7109 27.4188 11.127H25.784C25.784 10.6523 25.951 10.1953 26.285 9.75586C26.6248 9.31055 27.0818 8.95898 27.6561 8.70117C28.2361 8.44336 28.8719 8.31445 29.5633 8.31445C30.659 8.31445 31.5174 8.58984 32.1385 9.14062C32.7596 9.68555 33.0818 10.4385 33.1053 11.3994V15.7764C33.1053 16.6494 33.2166 17.3438 33.4393 17.8594V18H31.7342ZM29.0359 16.7607C29.5457 16.7607 30.0291 16.6289 30.4861 16.3652C30.9432 16.1016 31.2742 15.7588 31.4793 15.3369V13.3857H30.2049C28.2127 13.3857 27.2166 13.9688 27.2166 15.1348C27.2166 15.6445 27.3865 16.043 27.7264 16.3301C28.0662 16.6172 28.5027 16.7607 29.0359 16.7607ZM38.8512 15.7939L41.2066 8.49023H42.8678L39.4576 18H38.2184L34.773 8.49023H36.4342L38.8512 15.7939ZM50.3627 18C50.2689 17.8125 50.1928 17.4785 50.1342 16.998C49.3783 17.7832 48.476 18.1758 47.4271 18.1758C46.4896 18.1758 45.7191 17.9121 45.1156 17.3848C44.518 16.8516 44.2191 16.1777 44.2191 15.3633C44.2191 14.373 44.5941 13.6055 45.3441 13.0605C46.1 12.5098 47.1605 12.2344 48.5258 12.2344H50.1078V11.4873C50.1078 10.9189 49.9379 10.4678 49.598 10.1338C49.2582 9.79395 48.7572 9.62402 48.0951 9.62402C47.515 9.62402 47.0287 9.77051 46.6361 10.0635C46.2436 10.3564 46.0473 10.7109 46.0473 11.127H44.4125C44.4125 10.6523 44.5795 10.1953 44.9135 9.75586C45.2533 9.31055 45.7104 8.95898 46.2846 8.70117C46.8646 8.44336 47.5004 8.31445 48.1918 8.31445C49.2875 8.31445 50.1459 8.58984 50.767 9.14062C51.3881 9.68555 51.7104 10.4385 51.7338 11.3994V15.7764C51.7338 16.6494 51.8451 17.3438 52.0678 17.8594V18H50.3627ZM47.6645 16.7607C48.1742 16.7607 48.6576 16.6289 49.1146 16.3652C49.5717 16.1016 49.9027 15.7588 50.1078 15.3369V13.3857H48.8334C46.8412 13.3857 45.8451 13.9688 45.8451 15.1348C45.8451 15.6445 46.015 16.043 46.3549 16.3301C46.6947 16.6172 47.1312 16.7607 47.6645 16.7607ZM63.1729 12.2959C61.7256 11.8799 60.6709 11.3701 60.0088 10.7666C59.3525 10.1572 59.0244 9.40723 59.0244 8.5166C59.0244 7.50879 59.4258 6.67676 60.2285 6.02051C61.0371 5.3584 62.0859 5.02734 63.375 5.02734C64.2539 5.02734 65.0361 5.19727 65.7217 5.53711C66.4131 5.87695 66.9463 6.3457 67.3213 6.94336C67.7021 7.54102 67.8926 8.19434 67.8926 8.90332H66.1963C66.1963 8.12988 65.9502 7.52344 65.458 7.08398C64.9658 6.63867 64.2715 6.41602 63.375 6.41602C62.543 6.41602 61.8926 6.60059 61.4238 6.96973C60.9609 7.33301 60.7295 7.83984 60.7295 8.49023C60.7295 9.01172 60.9492 9.4541 61.3887 9.81738C61.834 10.1748 62.5869 10.5029 63.6475 10.8018C64.7139 11.1006 65.5459 11.4316 66.1436 11.7949C66.7471 12.1523 67.1924 12.5713 67.4795 13.0518C67.7725 13.5322 67.9189 14.0977 67.9189 14.748C67.9189 15.7852 67.5146 16.6172 66.7061 17.2441C65.8975 17.8652 64.8164 18.1758 63.4629 18.1758C62.584 18.1758 61.7637 18.0088 61.002 17.6748C60.2402 17.335 59.6514 16.8721 59.2354 16.2861C58.8252 15.7002 58.6201 15.0352 58.6201 14.291H60.3164C60.3164 15.0645 60.6006 15.6768 61.1689 16.1279C61.7432 16.5732 62.5078 16.7959 63.4629 16.7959C64.3535 16.7959 65.0361 16.6143 65.5107 16.251C65.9854 15.8877 66.2227 15.3926 66.2227 14.7656C66.2227 14.1387 66.0029 13.6553 65.5635 13.3154C65.124 12.9697 64.3271 12.6299 63.1729 12.2959ZM73.8494 16.8486C74.4295 16.8486 74.9363 16.6729 75.3699 16.3213C75.8035 15.9697 76.0437 15.5303 76.0906 15.0029H77.6287C77.5994 15.5479 77.4119 16.0664 77.0662 16.5586C76.7205 17.0508 76.2576 17.4434 75.6775 17.7363C75.1033 18.0293 74.4939 18.1758 73.8494 18.1758C72.5545 18.1758 71.5232 17.7451 70.7557 16.8838C69.9939 16.0166 69.6131 14.833 69.6131 13.333V13.0605C69.6131 12.1348 69.783 11.3115 70.1228 10.5908C70.4627 9.87012 70.949 9.31055 71.5818 8.91211C72.2205 8.51367 72.9734 8.31445 73.8406 8.31445C74.907 8.31445 75.7918 8.63379 76.4949 9.27246C77.2039 9.91113 77.5818 10.7402 77.6287 11.7598H76.0906C76.0437 11.1445 75.8094 10.6406 75.3875 10.248C74.9715 9.84961 74.4559 9.65039 73.8406 9.65039C73.0145 9.65039 72.3728 9.94922 71.9158 10.5469C71.4646 11.1387 71.2391 11.9971 71.2391 13.1221V13.4297C71.2391 14.5254 71.4646 15.3691 71.9158 15.9609C72.367 16.5527 73.0115 16.8486 73.8494 16.8486ZM84.2535 9.94922C84.0074 9.9082 83.7408 9.8877 83.4537 9.8877C82.3873 9.8877 81.6637 10.3418 81.2828 11.25V18H79.6568V8.49023H81.2389L81.2652 9.58887C81.7984 8.73926 82.5543 8.31445 83.5328 8.31445C83.8492 8.31445 84.0895 8.35547 84.2535 8.4375V9.94922ZM87.723 18H86.0971V8.49023H87.723V18ZM85.9652 5.96777C85.9652 5.7041 86.0443 5.48145 86.2025 5.2998C86.3666 5.11816 86.6068 5.02734 86.9232 5.02734C87.2396 5.02734 87.4799 5.11816 87.6439 5.2998C87.808 5.48145 87.89 5.7041 87.89 5.96777C87.89 6.23145 87.808 6.45117 87.6439 6.62695C87.4799 6.80273 87.2396 6.89062 86.9232 6.89062C86.6068 6.89062 86.3666 6.80273 86.2025 6.62695C86.0443 6.45117 85.9652 6.23145 85.9652 5.96777ZM98.5666 13.3506C98.5666 14.7979 98.2355 15.9639 97.5734 16.8486C96.9113 17.7334 96.0148 18.1758 94.884 18.1758C93.7297 18.1758 92.8215 17.8096 92.1594 17.0771V21.6562H90.5334V8.49023H92.0188L92.0979 9.54492C92.76 8.72461 93.6799 8.31445 94.8576 8.31445C96.0002 8.31445 96.9025 8.74512 97.5647 9.60645C98.2326 10.4678 98.5666 11.666 98.5666 13.2012V13.3506ZM96.9406 13.166C96.9406 12.0938 96.7121 11.2471 96.2551 10.626C95.798 10.0049 95.1711 9.69434 94.3742 9.69434C93.3898 9.69434 92.6516 10.1309 92.1594 11.0039V15.5479C92.6457 16.415 93.3898 16.8486 94.3918 16.8486C95.1711 16.8486 95.7893 16.541 96.2463 15.9258C96.7092 15.3047 96.9406 14.3848 96.9406 13.166ZM103.047 6.1875V8.49023H104.822V9.74707H103.047V15.6445C103.047 16.0254 103.126 16.3125 103.284 16.5059C103.442 16.6934 103.712 16.7871 104.093 16.7871C104.28 16.7871 104.538 16.752 104.866 16.6816V18C104.438 18.1172 104.022 18.1758 103.618 18.1758C102.892 18.1758 102.344 17.9561 101.975 17.5166C101.605 17.0771 101.421 16.4531 101.421 15.6445V9.74707H99.6895V8.49023H101.421V6.1875H103.047Z" fill="#1A1B22"/>
<path d="M14 47H106V139H14V47Z" fill="#D1D2D6"/>
<path d="M38.1913 123.882L45.2318 119.621C46.59 122.03 47.8256 124.067 50.7893 124.067C53.6302 124.067 55.4213 122.956 55.4213 118.633V89.2372H64.067V118.756C64.067 127.71 58.818 131.786 51.1599 131.786C44.2437 131.786 40.229 128.204 38.1912 123.881" fill="#F5F6F7"/>
<path d="M68.7603 122.955L75.7999 118.879C77.653 121.905 80.0615 124.128 84.3224 124.128C87.9047 124.128 90.1891 122.337 90.1891 119.867C90.1891 116.902 87.8425 115.852 83.89 114.124L81.7292 113.197C75.4914 110.542 71.3536 107.207 71.3536 100.167C71.3536 93.6823 76.294 88.7416 84.0139 88.7416C89.5102 88.7416 93.4625 90.6562 96.303 95.6585L89.5715 99.9812C88.0893 97.3259 86.4841 96.2763 84.014 96.2763C81.482 96.2763 79.8762 97.8819 79.8762 99.9812C79.8762 102.575 81.482 103.625 85.1869 105.231L87.3482 106.157C94.6972 109.307 98.8351 112.518 98.8351 119.743C98.8351 127.525 92.7213 131.786 84.5079 131.786C76.4796 131.786 71.292 127.957 68.7604 122.955" fill="#F5F6F7"/>
</svg>
