<svg width="120" height="153" viewBox="0 0 120 153" fill="none" xmlns="http://www.w3.org/2000/svg">
<path d="M26.7486 13.9658L26.9947 15.6533L27.3551 14.1328L29.8863 5.20312H31.3102L33.7799 14.1328L34.1314 15.6797L34.4039 13.957L36.3902 5.20312H38.0865L34.984 18H33.4459L30.8092 8.6748L30.607 7.69922L30.4049 8.6748L27.6715 18H26.1334L23.0396 5.20312H24.7271L26.7486 13.9658ZM43.5775 18.1758C42.2885 18.1758 41.2397 17.7539 40.4311 16.9102C39.6225 16.0605 39.2182 14.9268 39.2182 13.5088V13.21C39.2182 12.2666 39.3969 11.4258 39.7543 10.6875C40.1176 9.94336 40.6215 9.36328 41.266 8.94727C41.9164 8.52539 42.6195 8.31445 43.3754 8.31445C44.6117 8.31445 45.5727 8.72168 46.2582 9.53613C46.9438 10.3506 47.2865 11.5166 47.2865 13.0342V13.7109H40.8441C40.8676 14.6484 41.14 15.4072 41.6615 15.9873C42.1889 16.5615 42.8568 16.8486 43.6654 16.8486C44.2397 16.8486 44.726 16.7314 45.1244 16.4971C45.5229 16.2627 45.8715 15.9521 46.1703 15.5654L47.1635 16.3389C46.3666 17.5635 45.1713 18.1758 43.5775 18.1758ZM43.3754 9.65039C42.7191 9.65039 42.1684 9.89062 41.723 10.3711C41.2777 10.8457 41.0023 11.5137 40.8969 12.375H45.6605V12.252C45.6137 11.4258 45.391 10.7871 44.9926 10.3359C44.5941 9.87891 44.0551 9.65039 43.3754 9.65039ZM57.427 13.3506C57.427 14.8037 57.093 15.9727 56.425 16.8574C55.757 17.7363 54.8605 18.1758 53.7355 18.1758C52.5344 18.1758 51.6057 17.751 50.9494 16.9014L50.8703 18H49.3762V4.5H51.0022V9.53613C51.6584 8.72168 52.5637 8.31445 53.718 8.31445C54.8723 8.31445 55.7775 8.75098 56.4338 9.62402C57.0959 10.4971 57.427 11.6924 57.427 13.21V13.3506ZM55.801 13.166C55.801 12.0586 55.5871 11.2031 55.1594 10.5996C54.7316 9.99609 54.1164 9.69434 53.3137 9.69434C52.2414 9.69434 51.4709 10.1924 51.0022 11.1885V15.3018C51.5002 16.2979 52.2766 16.7959 53.3313 16.7959C54.1105 16.7959 54.717 16.4941 55.1506 15.8906C55.5842 15.2871 55.801 14.3789 55.801 13.166ZM67.7168 13.3506C67.7168 14.7979 67.3857 15.9639 66.7236 16.8486C66.0615 17.7334 65.165 18.1758 64.0342 18.1758C62.8799 18.1758 61.9717 17.8096 61.3096 17.0771V21.6562H59.6836V8.49023H61.1689L61.248 9.54492C61.9102 8.72461 62.8301 8.31445 64.0078 8.31445C65.1504 8.31445 66.0527 8.74512 66.7148 9.60645C67.3828 10.4678 67.7168 11.666 67.7168 13.2012V13.3506ZM66.0908 13.166C66.0908 12.0938 65.8623 11.2471 65.4053 10.626C64.9482 10.0049 64.3213 9.69434 63.5244 9.69434C62.54 9.69434 61.8018 10.1309 61.3096 11.0039V15.5479C61.7959 16.415 62.54 16.8486 63.542 16.8486C64.3213 16.8486 64.9395 16.541 65.3965 15.9258C65.8594 15.3047 66.0908 14.3848 66.0908 13.166ZM75.8621 18C75.7684 17.8125 75.6922 17.4785 75.6336 16.998C74.8777 17.7832 73.9754 18.1758 72.9266 18.1758C71.9891 18.1758 71.2186 17.9121 70.615 17.3848C70.0174 16.8516 69.7186 16.1777 69.7186 15.3633C69.7186 14.373 70.0936 13.6055 70.8436 13.0605C71.5994 12.5098 72.66 12.2344 74.0252 12.2344H75.6072V11.4873C75.6072 10.9189 75.4373 10.4678 75.0975 10.1338C74.7576 9.79395 74.2566 9.62402 73.5945 9.62402C73.0145 9.62402 72.5281 9.77051 72.1355 10.0635C71.743 10.3564 71.5467 10.7109 71.5467 11.127H69.9119C69.9119 10.6523 70.0789 10.1953 70.4129 9.75586C70.7527 9.31055 71.2098 8.95898 71.784 8.70117C72.3641 8.44336 72.9998 8.31445 73.6912 8.31445C74.7869 8.31445 75.6453 8.58984 76.2664 9.14062C76.8875 9.68555 77.2098 10.4385 77.2332 11.3994V15.7764C77.2332 16.6494 77.3445 17.3438 77.5672 17.8594V18H75.8621ZM73.1639 16.7607C73.6736 16.7607 74.157 16.6289 74.6141 16.3652C75.0711 16.1016 75.4021 15.7588 75.6072 15.3369V13.3857H74.3328C72.3406 13.3857 71.3445 13.9688 71.3445 15.1348C71.3445 15.6445 71.5145 16.043 71.8543 16.3301C72.1941 16.6172 72.6307 16.7607 73.1639 16.7607ZM83.7965 16.8486C84.3766 16.8486 84.8834 16.6729 85.317 16.3213C85.7506 15.9697 85.9908 15.5303 86.0377 15.0029H87.5758C87.5465 15.5479 87.359 16.0664 87.0133 16.5586C86.6676 17.0508 86.2047 17.4434 85.6246 17.7363C85.0504 18.0293 84.441 18.1758 83.7965 18.1758C82.5016 18.1758 81.4703 17.7451 80.7027 16.8838C79.941 16.0166 79.5602 14.833 79.5602 13.333V13.0605C79.5602 12.1348 79.7301 11.3115 80.0699 10.5908C80.4098 9.87012 80.8961 9.31055 81.5289 8.91211C82.1676 8.51367 82.9205 8.31445 83.7877 8.31445C84.8541 8.31445 85.7389 8.63379 86.442 9.27246C87.151 9.91113 87.5289 10.7402 87.5758 11.7598H86.0377C85.9908 11.1445 85.7564 10.6406 85.3346 10.248C84.9186 9.84961 84.4029 9.65039 83.7877 9.65039C82.9615 9.65039 82.3199 9.94922 81.8629 10.5469C81.4117 11.1387 81.1861 11.9971 81.1861 13.1221V13.4297C81.1861 14.5254 81.4117 15.3691 81.8629 15.9609C82.3141 16.5527 82.9586 16.8486 83.7965 16.8486ZM92.2582 13.5967L91.2387 14.6602V18H89.6127V4.5H91.2387V12.665L92.1088 11.6191L95.0707 8.49023H97.0482L93.348 12.4629L97.4789 18H95.5717L92.2582 13.5967Z" fill="#1A1B22"/>
<path d="M101.829 119.802L61.6847 142.513V124.828L86.6979 111.065L101.829 119.802ZM104.579 117.315V69.8284L89.8952 78.3152V108.842L104.579 117.315ZM18.0137 119.802L58.1584 142.513V124.828L33.1321 111.065L18.0137 119.802ZM15.2637 117.315V69.8284L29.9479 78.3152V108.842L15.2637 117.315ZM16.9874 66.7494L58.1584 43.46V60.5521L31.7768 75.0652L31.5663 75.1836L16.9874 66.7494ZM102.856 66.7494L61.6847 43.46V60.5521L88.0663 75.0521L88.2768 75.1705L102.856 66.7494Z" fill="#D1D2D6"/>
<path d="M58.1574 120.802L33.4731 107.223V80.3414L58.1574 94.5914V120.802ZM61.6837 120.802L86.3679 107.236V80.3414L61.6837 94.5914V120.802ZM35.1442 77.2361L59.9205 63.6177L84.6968 77.2361L59.9205 91.5387L35.1442 77.2361Z" fill="#D1D2D6"/>
</svg>
